<?xml version="1.0" encoding="UTF-8" standalone="no"?>
<!DOCTYPE svg PUBLIC "-//W3C//DTD SVG 1.1//EN"
 "http://www.w3.org/Graphics/SVG/1.1/DTD/svg11.dtd">
<!-- Generated by graphviz version 2.42.3 (20191010.1750)
 -->
<!-- Title: snakemake_dag Pages: 1 -->
<svg width="1528pt" height="260pt"
 viewBox="0.00 0.00 1528.00 260.00" xmlns="http://www.w3.org/2000/svg" xmlns:xlink="http://www.w3.org/1999/xlink">
<g id="graph0" class="graph" transform="scale(1 1) rotate(0) translate(4 256)">
<title>snakemake_dag</title>
<polygon fill="white" stroke="transparent" points="-4,4 -4,-256 1524,-256 1524,4 -4,4"/>
<!-- 0 -->
<g id="node1" class="node">
<title>0</title>
<path fill="none" stroke="#56d8a9" stroke-width="2" d="M752.5,-36C752.5,-36 722.5,-36 722.5,-36 716.5,-36 710.5,-30 710.5,-24 710.5,-24 710.5,-12 710.5,-12 710.5,-6 716.5,0 722.5,0 722.5,0 752.5,0 752.5,0 758.5,0 764.5,-6 764.5,-12 764.5,-12 764.5,-24 764.5,-24 764.5,-30 758.5,-36 752.5,-36"/>
<text text-anchor="middle" x="737.5" y="-15.5" font-family="sans" font-size="10.00">all</text>
</g>
<!-- 1 -->
<g id="node2" class="node">
<title>1</title>
<path fill="none" stroke="#5692d8" stroke-width="2" d="M89,-108C89,-108 12,-108 12,-108 6,-108 0,-102 0,-96 0,-96 0,-84 0,-84 0,-78 6,-72 12,-72 12,-72 89,-72 89,-72 95,-72 101,-78 101,-84 101,-84 101,-96 101,-96 101,-102 95,-108 89,-108"/>
<text text-anchor="middle" x="50.5" y="-93" font-family="sans" font-size="10.00">trimming</text>
<text text-anchor="middle" x="50.5" y="-82" font-family="sans" font-size="10.00">sample: sample1</text>
</g>
<!-- 1&#45;&gt;0 -->
<g id="edge1" class="edge">
<title>1&#45;&gt;0</title>
<path fill="none" stroke="grey" stroke-width="2" d="M101.2,-73.71C103.99,-73.08 106.77,-72.5 109.5,-72 330.93,-31.17 602.16,-21.73 700.05,-19.6"/>
<polygon fill="grey" stroke="grey" stroke-width="2" points="700.39,-23.1 710.32,-19.39 700.25,-16.1 700.39,-23.1"/>
</g>
<!-- 2 -->
<g id="node3" class="node">
<title>2</title>
<path fill="none" stroke="#5692d8" stroke-width="2" d="M208,-108C208,-108 131,-108 131,-108 125,-108 119,-102 119,-96 119,-96 119,-84 119,-84 119,-78 125,-72 131,-72 131,-72 208,-72 208,-72 214,-72 220,-78 220,-84 220,-84 220,-96 220,-96 220,-102 214,-108 208,-108"/>
<text text-anchor="middle" x="169.5" y="-93" font-family="sans" font-size="10.00">trimming</text>
<text text-anchor="middle" x="169.5" y="-82" font-family="sans" font-size="10.00">sample: sample2</text>
</g>
<!-- 2&#45;&gt;0 -->
<g id="edge2" class="edge">
<title>2&#45;&gt;0</title>
<path fill="none" stroke="grey" stroke-width="2" d="M220.21,-73.77C223,-73.13 225.78,-72.53 228.5,-72 403.09,-38.04 615.88,-24.78 700.36,-20.62"/>
<polygon fill="grey" stroke="grey" stroke-width="2" points="700.67,-24.11 710.49,-20.13 700.33,-17.11 700.67,-24.11"/>
</g>
<!-- 3 -->
<g id="node4" class="node">
<title>3</title>
<path fill="none" stroke="#5692d8" stroke-width="2" d="M327,-108C327,-108 250,-108 250,-108 244,-108 238,-102 238,-96 238,-96 238,-84 238,-84 238,-78 244,-72 250,-72 250,-72 327,-72 327,-72 333,-72 339,-78 339,-84 339,-84 339,-96 339,-96 339,-102 333,-108 327,-108"/>
<text text-anchor="middle" x="288.5" y="-93" font-family="sans" font-size="10.00">trimming</text>
<text text-anchor="middle" x="288.5" y="-82" font-family="sans" font-size="10.00">sample: sample3</text>
</g>
<!-- 3&#45;&gt;0 -->
<g id="edge3" class="edge">
<title>3&#45;&gt;0</title>
<path fill="none" stroke="grey" stroke-width="2" d="M339.23,-73.88C342.02,-73.2 344.79,-72.57 347.5,-72 475.65,-44.98 630.51,-28.71 700.26,-22.24"/>
<polygon fill="grey" stroke="grey" stroke-width="2" points="700.68,-25.72 710.32,-21.32 700.04,-18.75 700.68,-25.72"/>
</g>
<!-- 4 -->
<g id="node5" class="node">
<title>4</title>
<path fill="none" stroke="#d88d56" stroke-width="2" d="M624,-252C624,-252 547,-252 547,-252 541,-252 535,-246 535,-240 535,-240 535,-228 535,-228 535,-222 541,-216 547,-216 547,-216 624,-216 624,-216 630,-216 636,-222 636,-228 636,-228 636,-240 636,-240 636,-246 630,-252 624,-252"/>
<text text-anchor="middle" x="585.5" y="-237" font-family="sans" font-size="10.00">alignment</text>
<text text-anchor="middle" x="585.5" y="-226" font-family="sans" font-size="10.00">sample: sample1</text>
</g>
<!-- 4&#45;&gt;0 -->
<g id="edge4" class="edge">
<title>4&#45;&gt;0</title>
<path fill="none" stroke="grey" stroke-width="2" d="M575.4,-215.68C566.16,-197.55 555.13,-168.39 563.5,-144 576.66,-105.65 587.62,-97.05 619.5,-72 643.71,-52.98 675.84,-39.13 700.45,-30.37"/>
<polygon fill="grey" stroke="grey" stroke-width="2" points="701.84,-33.59 710.16,-27.04 699.57,-26.97 701.84,-33.59"/>
</g>
<!-- 7 -->
<g id="node8" class="node">
<title>7</title>
<path fill="none" stroke="#d85656" stroke-width="2" d="M668.5,-180C668.5,-180 584.5,-180 584.5,-180 578.5,-180 572.5,-174 572.5,-168 572.5,-168 572.5,-156 572.5,-156 572.5,-150 578.5,-144 584.5,-144 584.5,-144 668.5,-144 668.5,-144 674.5,-144 680.5,-150 680.5,-156 680.5,-156 680.5,-168 680.5,-168 680.5,-174 674.5,-180 668.5,-180"/>
<text text-anchor="middle" x="626.5" y="-159.5" font-family="sans" font-size="10.00">alignment_metrics</text>
</g>
<!-- 4&#45;&gt;7 -->
<g id="edge20" class="edge">
<title>4&#45;&gt;7</title>
<path fill="none" stroke="grey" stroke-width="2" d="M595.63,-215.7C600.35,-207.64 606.06,-197.89 611.28,-188.98"/>
<polygon fill="grey" stroke="grey" stroke-width="2" points="614.45,-190.5 616.48,-180.1 608.41,-186.96 614.45,-190.5"/>
</g>
<!-- 13 -->
<g id="node14" class="node">
<title>13</title>
<path fill="none" stroke="#56c9d8" stroke-width="2" d="M504,-180C504,-180 433,-180 433,-180 427,-180 421,-174 421,-168 421,-168 421,-156 421,-156 421,-150 427,-144 433,-144 433,-144 504,-144 504,-144 510,-144 516,-150 516,-156 516,-156 516,-168 516,-168 516,-174 510,-180 504,-180"/>
<text text-anchor="middle" x="468.5" y="-159.5" font-family="sans" font-size="10.00">picard_markdup</text>
</g>
<!-- 4&#45;&gt;13 -->
<g id="edge23" class="edge">
<title>4&#45;&gt;13</title>
<path fill="none" stroke="grey" stroke-width="2" d="M556.88,-215.88C541.58,-206.72 522.56,-195.34 506.08,-185.48"/>
<polygon fill="grey" stroke="grey" stroke-width="2" points="507.61,-182.32 497.23,-180.19 504.02,-188.33 507.61,-182.32"/>
</g>
<!-- 19 -->
<g id="node20" class="node">
<title>19</title>
<path fill="none" stroke="#56d873" stroke-width="2" d="M770.5,-180C770.5,-180 710.5,-180 710.5,-180 704.5,-180 698.5,-174 698.5,-168 698.5,-168 698.5,-156 698.5,-156 698.5,-150 704.5,-144 710.5,-144 710.5,-144 770.5,-144 770.5,-144 776.5,-144 782.5,-150 782.5,-156 782.5,-156 782.5,-168 782.5,-168 782.5,-174 776.5,-180 770.5,-180"/>
<text text-anchor="middle" x="740.5" y="-159.5" font-family="sans" font-size="10.00">featurecounts</text>
</g>
<!-- 4&#45;&gt;19 -->
<g id="edge29" class="edge">
<title>4&#45;&gt;19</title>
<path fill="none" stroke="grey" stroke-width="2" d="M623.42,-215.88C644.51,-206.35 670.96,-194.41 693.37,-184.28"/>
<polygon fill="grey" stroke="grey" stroke-width="2" points="695.03,-187.37 702.71,-180.07 692.15,-180.99 695.03,-187.37"/>
</g>
<!-- 5 -->
<g id="node6" class="node">
<title>5</title>
<path fill="none" stroke="#d88d56" stroke-width="2" d="M971,-252C971,-252 894,-252 894,-252 888,-252 882,-246 882,-240 882,-240 882,-228 882,-228 882,-222 888,-216 894,-216 894,-216 971,-216 971,-216 977,-216 983,-222 983,-228 983,-228 983,-240 983,-240 983,-246 977,-252 971,-252"/>
<text text-anchor="middle" x="932.5" y="-237" font-family="sans" font-size="10.00">alignment</text>
<text text-anchor="middle" x="932.5" y="-226" font-family="sans" font-size="10.00">sample: sample2</text>
</g>
<!-- 5&#45;&gt;0 -->
<g id="edge5" class="edge">
<title>5&#45;&gt;0</title>
<path fill="none" stroke="grey" stroke-width="2" d="M909.61,-215.94C882.55,-196.4 835.61,-164.47 791.5,-144 743.3,-121.64 708.91,-150.86 677.5,-108 668.04,-95.09 670.92,-86.59 677.5,-72 682.91,-60 692.53,-49.63 702.5,-41.32"/>
<polygon fill="grey" stroke="grey" stroke-width="2" points="704.75,-44.01 710.5,-35.11 700.45,-38.48 704.75,-44.01"/>
</g>
<!-- 8 -->
<g id="node9" class="node">
<title>8</title>
<path fill="none" stroke="#d85656" stroke-width="2" d="M1223.5,-180C1223.5,-180 1139.5,-180 1139.5,-180 1133.5,-180 1127.5,-174 1127.5,-168 1127.5,-168 1127.5,-156 1127.5,-156 1127.5,-150 1133.5,-144 1139.5,-144 1139.5,-144 1223.5,-144 1223.5,-144 1229.5,-144 1235.5,-150 1235.5,-156 1235.5,-156 1235.5,-168 1235.5,-168 1235.5,-174 1229.5,-180 1223.5,-180"/>
<text text-anchor="middle" x="1181.5" y="-159.5" font-family="sans" font-size="10.00">alignment_metrics</text>
</g>
<!-- 5&#45;&gt;8 -->
<g id="edge21" class="edge">
<title>5&#45;&gt;8</title>
<path fill="none" stroke="grey" stroke-width="2" d="M983.19,-218.75C1022.02,-207.83 1075.85,-192.7 1117.63,-180.96"/>
<polygon fill="grey" stroke="grey" stroke-width="2" points="1118.75,-184.28 1127.43,-178.2 1116.86,-177.54 1118.75,-184.28"/>
</g>
<!-- 14 -->
<g id="node15" class="node">
<title>14</title>
<path fill="none" stroke="#56c9d8" stroke-width="2" d="M1090,-180C1090,-180 1019,-180 1019,-180 1013,-180 1007,-174 1007,-168 1007,-168 1007,-156 1007,-156 1007,-150 1013,-144 1019,-144 1019,-144 1090,-144 1090,-144 1096,-144 1102,-150 1102,-156 1102,-156 1102,-168 1102,-168 1102,-174 1096,-180 1090,-180"/>
<text text-anchor="middle" x="1054.5" y="-159.5" font-family="sans" font-size="10.00">picard_markdup</text>
</g>
<!-- 5&#45;&gt;14 -->
<g id="edge24" class="edge">
<title>5&#45;&gt;14</title>
<path fill="none" stroke="grey" stroke-width="2" d="M962.34,-215.88C978.44,-206.64 998.5,-195.13 1015.79,-185.21"/>
<polygon fill="grey" stroke="grey" stroke-width="2" points="1017.61,-188.2 1024.54,-180.19 1014.13,-182.13 1017.61,-188.2"/>
</g>
<!-- 5&#45;&gt;19 -->
<g id="edge30" class="edge">
<title>5&#45;&gt;19</title>
<path fill="none" stroke="grey" stroke-width="2" d="M885.53,-215.88C857.3,-205.58 821.35,-192.48 792.3,-181.88"/>
<polygon fill="grey" stroke="grey" stroke-width="2" points="793.32,-178.53 782.73,-178.4 790.93,-185.11 793.32,-178.53"/>
</g>
<!-- 6 -->
<g id="node7" class="node">
<title>6</title>
<path fill="none" stroke="#d88d56" stroke-width="2" d="M1350,-252C1350,-252 1273,-252 1273,-252 1267,-252 1261,-246 1261,-240 1261,-240 1261,-228 1261,-228 1261,-222 1267,-216 1273,-216 1273,-216 1350,-216 1350,-216 1356,-216 1362,-222 1362,-228 1362,-228 1362,-240 1362,-240 1362,-246 1356,-252 1350,-252"/>
<text text-anchor="middle" x="1311.5" y="-237" font-family="sans" font-size="10.00">alignment</text>
<text text-anchor="middle" x="1311.5" y="-226" font-family="sans" font-size="10.00">sample: sample3</text>
</g>
<!-- 6&#45;&gt;0 -->
<g id="edge6" class="edge">
<title>6&#45;&gt;0</title>
<path fill="none" stroke="grey" stroke-width="2" d="M1303.94,-215.73C1286.41,-176.04 1243.49,-81 1230.5,-72 1156.78,-20.92 876.44,-17.88 774.68,-18.52"/>
<polygon fill="grey" stroke="grey" stroke-width="2" points="774.54,-15.02 764.57,-18.6 774.6,-22.02 774.54,-15.02"/>
</g>
<!-- 9 -->
<g id="node10" class="node">
<title>9</title>
<path fill="none" stroke="#d85656" stroke-width="2" d="M1394.5,-180C1394.5,-180 1310.5,-180 1310.5,-180 1304.5,-180 1298.5,-174 1298.5,-168 1298.5,-168 1298.5,-156 1298.5,-156 1298.5,-150 1304.5,-144 1310.5,-144 1310.5,-144 1394.5,-144 1394.5,-144 1400.5,-144 1406.5,-150 1406.5,-156 1406.5,-156 1406.5,-168 1406.5,-168 1406.5,-174 1400.5,-180 1394.5,-180"/>
<text text-anchor="middle" x="1352.5" y="-159.5" font-family="sans" font-size="10.00">alignment_metrics</text>
</g>
<!-- 6&#45;&gt;9 -->
<g id="edge22" class="edge">
<title>6&#45;&gt;9</title>
<path fill="none" stroke="grey" stroke-width="2" d="M1321.63,-215.7C1326.35,-207.64 1332.06,-197.89 1337.28,-188.98"/>
<polygon fill="grey" stroke="grey" stroke-width="2" points="1340.45,-190.5 1342.48,-180.1 1334.41,-186.96 1340.45,-190.5"/>
</g>
<!-- 15 -->
<g id="node16" class="node">
<title>15</title>
<path fill="none" stroke="#56c9d8" stroke-width="2" d="M1508,-180C1508,-180 1437,-180 1437,-180 1431,-180 1425,-174 1425,-168 1425,-168 1425,-156 1425,-156 1425,-150 1431,-144 1437,-144 1437,-144 1508,-144 1508,-144 1514,-144 1520,-150 1520,-156 1520,-156 1520,-168 1520,-168 1520,-174 1514,-180 1508,-180"/>
<text text-anchor="middle" x="1472.5" y="-159.5" font-family="sans" font-size="10.00">picard_markdup</text>
</g>
<!-- 6&#45;&gt;15 -->
<g id="edge25" class="edge">
<title>6&#45;&gt;15</title>
<path fill="none" stroke="grey" stroke-width="2" d="M1350.89,-215.88C1372.89,-206.31 1400.51,-194.3 1423.86,-184.15"/>
<polygon fill="grey" stroke="grey" stroke-width="2" points="1425.47,-187.27 1433.24,-180.07 1422.68,-180.85 1425.47,-187.27"/>
</g>
<!-- 6&#45;&gt;19 -->
<g id="edge31" class="edge">
<title>6&#45;&gt;19</title>
<path fill="none" stroke="grey" stroke-width="2" d="M1260.83,-226.79C1153.08,-213.58 902.16,-182.82 792.9,-169.42"/>
<polygon fill="grey" stroke="grey" stroke-width="2" points="793.13,-165.93 782.78,-168.18 792.28,-172.87 793.13,-165.93"/>
</g>
<!-- 7&#45;&gt;0 -->
<g id="edge7" class="edge">
<title>7&#45;&gt;0</title>
<path fill="none" stroke="grey" stroke-width="2" d="M623.44,-143.65C621.02,-124.44 620.12,-93.36 634.5,-72 649.67,-49.48 677.49,-35.97 700.39,-28.23"/>
<polygon fill="grey" stroke="grey" stroke-width="2" points="701.69,-31.49 710.18,-25.17 699.59,-24.81 701.69,-31.49"/>
</g>
<!-- 8&#45;&gt;0 -->
<g id="edge8" class="edge">
<title>8&#45;&gt;0</title>
<path fill="none" stroke="grey" stroke-width="2" d="M1196.47,-143.94C1211.75,-124.41 1230.83,-92.49 1212.5,-72 1183.42,-39.49 881.71,-24.63 774.8,-20.36"/>
<polygon fill="grey" stroke="grey" stroke-width="2" points="774.92,-16.86 764.79,-19.97 774.64,-23.86 774.92,-16.86"/>
</g>
<!-- 9&#45;&gt;0 -->
<g id="edge9" class="edge">
<title>9&#45;&gt;0</title>
<path fill="none" stroke="grey" stroke-width="2" d="M1344.78,-143.79C1334.38,-122.84 1313.73,-88.25 1284.5,-72 1196.74,-23.2 883.49,-18.82 774.89,-18.8"/>
<polygon fill="grey" stroke="grey" stroke-width="2" points="774.74,-15.3 764.74,-18.81 774.74,-22.3 774.74,-15.3"/>
</g>
<!-- 10 -->
<g id="node11" class="node">
<title>10</title>
<path fill="none" stroke="#d8cb56" stroke-width="2" d="M776,-108C776,-108 699,-108 699,-108 693,-108 687,-102 687,-96 687,-96 687,-84 687,-84 687,-78 693,-72 699,-72 699,-72 776,-72 776,-72 782,-72 788,-78 788,-84 788,-84 788,-96 788,-96 788,-102 782,-108 776,-108"/>
<text text-anchor="middle" x="737.5" y="-93" font-family="sans" font-size="10.00">fastqc</text>
<text text-anchor="middle" x="737.5" y="-82" font-family="sans" font-size="10.00">sample: sample1</text>
</g>
<!-- 10&#45;&gt;0 -->
<g id="edge10" class="edge">
<title>10&#45;&gt;0</title>
<path fill="none" stroke="grey" stroke-width="2" d="M737.5,-71.7C737.5,-63.98 737.5,-54.71 737.5,-46.11"/>
<polygon fill="grey" stroke="grey" stroke-width="2" points="741,-46.1 737.5,-36.1 734,-46.1 741,-46.1"/>
</g>
<!-- 11 -->
<g id="node12" class="node">
<title>11</title>
<path fill="none" stroke="#d8cb56" stroke-width="2" d="M895,-108C895,-108 818,-108 818,-108 812,-108 806,-102 806,-96 806,-96 806,-84 806,-84 806,-78 812,-72 818,-72 818,-72 895,-72 895,-72 901,-72 907,-78 907,-84 907,-84 907,-96 907,-96 907,-102 901,-108 895,-108"/>
<text text-anchor="middle" x="856.5" y="-93" font-family="sans" font-size="10.00">fastqc</text>
<text text-anchor="middle" x="856.5" y="-82" font-family="sans" font-size="10.00">sample: sample2</text>
</g>
<!-- 11&#45;&gt;0 -->
<g id="edge11" class="edge">
<title>11&#45;&gt;0</title>
<path fill="none" stroke="grey" stroke-width="2" d="M827.39,-71.88C811.1,-62.29 790.66,-50.27 773.38,-40.11"/>
<polygon fill="grey" stroke="grey" stroke-width="2" points="775.07,-37.04 764.68,-34.99 771.52,-43.07 775.07,-37.04"/>
</g>
<!-- 12 -->
<g id="node13" class="node">
<title>12</title>
<path fill="none" stroke="#d8cb56" stroke-width="2" d="M1014,-108C1014,-108 937,-108 937,-108 931,-108 925,-102 925,-96 925,-96 925,-84 925,-84 925,-78 931,-72 937,-72 937,-72 1014,-72 1014,-72 1020,-72 1026,-78 1026,-84 1026,-84 1026,-96 1026,-96 1026,-102 1020,-108 1014,-108"/>
<text text-anchor="middle" x="975.5" y="-93" font-family="sans" font-size="10.00">fastqc</text>
<text text-anchor="middle" x="975.5" y="-82" font-family="sans" font-size="10.00">sample: sample3</text>
</g>
<!-- 12&#45;&gt;0 -->
<g id="edge12" class="edge">
<title>12&#45;&gt;0</title>
<path fill="none" stroke="grey" stroke-width="2" d="M924.73,-74.07C879.55,-60.78 814.55,-41.66 774.23,-29.8"/>
<polygon fill="grey" stroke="grey" stroke-width="2" points="775.12,-26.42 764.54,-26.95 773.14,-33.13 775.12,-26.42"/>
</g>
<!-- 13&#45;&gt;0 -->
<g id="edge13" class="edge">
<title>13&#45;&gt;0</title>
<path fill="none" stroke="grey" stroke-width="2" d="M475.88,-143.79C485.49,-123.51 504.2,-90.25 530.5,-72 582.14,-36.18 656.09,-24.56 700.2,-20.79"/>
<polygon fill="grey" stroke="grey" stroke-width="2" points="700.5,-24.28 710.21,-20.03 699.97,-17.3 700.5,-24.28"/>
</g>
<!-- 16 -->
<g id="node17" class="node">
<title>16</title>
<path fill="none" stroke="#afd856" stroke-width="2" d="M466,-108C466,-108 369,-108 369,-108 363,-108 357,-102 357,-96 357,-96 357,-84 357,-84 357,-78 363,-72 369,-72 369,-72 466,-72 466,-72 472,-72 478,-78 478,-84 478,-84 478,-96 478,-96 478,-102 472,-108 466,-108"/>
<text text-anchor="middle" x="417.5" y="-87.5" font-family="sans" font-size="10.00">picard_collectmetrics</text>
</g>
<!-- 13&#45;&gt;16 -->
<g id="edge26" class="edge">
<title>13&#45;&gt;16</title>
<path fill="none" stroke="grey" stroke-width="2" d="M455.89,-143.7C449.9,-135.47 442.62,-125.48 436.02,-116.42"/>
<polygon fill="grey" stroke="grey" stroke-width="2" points="438.68,-114.13 429.96,-108.1 433.02,-118.25 438.68,-114.13"/>
</g>
<!-- 14&#45;&gt;0 -->
<g id="edge14" class="edge">
<title>14&#45;&gt;0</title>
<path fill="none" stroke="grey" stroke-width="2" d="M1055.83,-143.92C1056.39,-123.75 1053.96,-90.61 1034.5,-72 997.78,-36.88 846.09,-24.55 774.82,-20.64"/>
<polygon fill="grey" stroke="grey" stroke-width="2" points="774.67,-17.13 764.51,-20.1 774.31,-24.12 774.67,-17.13"/>
</g>
<!-- 17 -->
<g id="node18" class="node">
<title>17</title>
<path fill="none" stroke="#afd856" stroke-width="2" d="M1192,-108C1192,-108 1095,-108 1095,-108 1089,-108 1083,-102 1083,-96 1083,-96 1083,-84 1083,-84 1083,-78 1089,-72 1095,-72 1095,-72 1192,-72 1192,-72 1198,-72 1204,-78 1204,-84 1204,-84 1204,-96 1204,-96 1204,-102 1198,-108 1192,-108"/>
<text text-anchor="middle" x="1143.5" y="-87.5" font-family="sans" font-size="10.00">picard_collectmetrics</text>
</g>
<!-- 14&#45;&gt;17 -->
<g id="edge27" class="edge">
<title>14&#45;&gt;17</title>
<path fill="none" stroke="grey" stroke-width="2" d="M1076.5,-143.7C1087.71,-134.88 1101.5,-124.03 1113.65,-114.47"/>
<polygon fill="grey" stroke="grey" stroke-width="2" points="1116.06,-117.04 1121.75,-108.1 1111.73,-111.54 1116.06,-117.04"/>
</g>
<!-- 15&#45;&gt;0 -->
<g id="edge15" class="edge">
<title>15&#45;&gt;0</title>
<path fill="none" stroke="grey" stroke-width="2" d="M1477.21,-143.94C1481.62,-123.79 1485.07,-90.66 1466.5,-72 1417.44,-22.68 917.53,-18.97 775.15,-18.91"/>
<polygon fill="grey" stroke="grey" stroke-width="2" points="774.77,-15.41 764.77,-18.92 774.77,-22.41 774.77,-15.41"/>
</g>
<!-- 18 -->
<g id="node19" class="node">
<title>18</title>
<path fill="none" stroke="#afd856" stroke-width="2" d="M1446,-108C1446,-108 1349,-108 1349,-108 1343,-108 1337,-102 1337,-96 1337,-96 1337,-84 1337,-84 1337,-78 1343,-72 1349,-72 1349,-72 1446,-72 1446,-72 1452,-72 1458,-78 1458,-84 1458,-84 1458,-96 1458,-96 1458,-102 1452,-108 1446,-108"/>
<text text-anchor="middle" x="1397.5" y="-87.5" font-family="sans" font-size="10.00">picard_collectmetrics</text>
</g>
<!-- 15&#45;&gt;18 -->
<g id="edge28" class="edge">
<title>15&#45;&gt;18</title>
<path fill="none" stroke="grey" stroke-width="2" d="M1453.96,-143.7C1444.7,-135.05 1433.34,-124.45 1423.24,-115.03"/>
<polygon fill="grey" stroke="grey" stroke-width="2" points="1425.52,-112.37 1415.83,-108.1 1420.75,-117.49 1425.52,-112.37"/>
</g>
<!-- 16&#45;&gt;0 -->
<g id="edge16" class="edge">
<title>16&#45;&gt;0</title>
<path fill="none" stroke="grey" stroke-width="2" d="M478.07,-75.22C482.95,-74.12 487.81,-73.04 492.5,-72 566.13,-55.69 652.33,-37.18 700.36,-26.92"/>
<polygon fill="grey" stroke="grey" stroke-width="2" points="701.24,-30.31 710.29,-24.79 699.78,-23.46 701.24,-30.31"/>
</g>
<!-- 17&#45;&gt;0 -->
<g id="edge17" class="edge">
<title>17&#45;&gt;0</title>
<path fill="none" stroke="grey" stroke-width="2" d="M1082.99,-74.93C1078.09,-73.9 1073.22,-72.91 1068.5,-72 962.36,-51.49 835.98,-32.84 774.61,-24.15"/>
<polygon fill="grey" stroke="grey" stroke-width="2" points="775.02,-20.67 764.63,-22.74 774.05,-27.6 775.02,-20.67"/>
</g>
<!-- 18&#45;&gt;0 -->
<g id="edge18" class="edge">
<title>18&#45;&gt;0</title>
<path fill="none" stroke="grey" stroke-width="2" d="M1336.64,-74.5C1331.87,-73.58 1327.12,-72.73 1322.5,-72 1117.12,-39.57 867.8,-25.18 774.82,-20.66"/>
<polygon fill="grey" stroke="grey" stroke-width="2" points="774.93,-17.16 764.77,-20.18 774.6,-24.16 774.93,-17.16"/>
</g>
<!-- 19&#45;&gt;0 -->
<g id="edge19" class="edge">
<title>19&#45;&gt;0</title>
<path fill="none" stroke="grey" stroke-width="2" d="M700.55,-143.97C677.18,-133.1 651.01,-119.03 644.5,-108 636.37,-94.22 636.46,-85.83 644.5,-72 656.59,-51.19 680.24,-37.88 700.67,-29.79"/>
<polygon fill="grey" stroke="grey" stroke-width="2" points="701.89,-33.07 710.07,-26.34 699.48,-26.5 701.89,-33.07"/>
</g>
</g>
</svg>
